<svg xmlns="http://www.w3.org/2000/svg" xml:space="preserve" id="Layer_1" x="0" y="0" version="1.1" viewBox="0 0 2170 650">
  <style id="style559" type="text/css">
    .st1{fill:#dc2626}.st2{fill:#fff}
  </style>
  <rect id="rect771" width="2170" height="650" x="0" y="0" fill="#0d1117" fill-opacity="1" stroke-width="1.5" rx="80" ry="80"/>
  <g id="g593" transform="translate(50 50)">
    <g id="g577">
      <g id="g575">
        <path id="path561" d="M705 155c23 0 44 5 62 15 19 10 33 25 44 43s16 38 16 61-5 44-16 62a116 116 0 0 1-106 59h-82V155Zm4 192c19 0 34-7 47-21 12-14 18-31 18-52 0-20-6-37-18-51a62 62 0 0 0-47-19h-36v143z" class="st2"/>
        <path id="path563" d="m997 395-15-40h-93l-15 40h-54l96-240h41l96 240zm-91-84h59l-29-76z" class="st2"/>
        <path id="path565" d="M1266 395h-62l-54-91h-26v91h-51V155h93c13 0 26 3 37 10a76 76 0 0 1 28 104c-6 12-16 21-28 27zm-142-191v56h37c8 0 15-3 21-8 5-6 8-13 8-21 0-7-3-14-8-19-6-5-13-8-21-8h-37z" class="st2"/>
        <path id="path567" d="M1447 155v49h-70v191h-51V204h-71v-49z" class="st2"/>
        <path id="path569" d="M1472 155h51v240h-51z" class="st2"/>
        <path id="path571" d="M1560 155h43l98 140V155h51v240h-43l-99-140v140h-50z" class="st2"/>
        <path id="path573" d="M1842 167c18-10 39-16 62-16s44 6 63 16a123 123 0 0 1 60 108 123 123 0 0 1-60 108c-19 10-40 16-63 16s-44-6-62-16c-19-11-34-26-45-45-10-19-15-40-15-63s5-44 15-63c11-19 26-34 45-45zm113 55a67 67 0 0 0-51-21c-20 0-37 7-50 21a74 74 0 0 0-20 53c0 21 6 39 20 53 13 14 30 21 50 21s37-7 51-21c13-14 20-32 20-53s-7-39-20-53z" class="st2"/>
      </g>
    </g>
    <g id="g591">
      <g id="g589">
        <g id="g587">
          <path id="path579" d="m336 63-8-6h64c10 0 27 7 35 20l91 168z" class="st1"/>
          <path id="path581" d="m336 487 182-182-91 168c-8 13-25 20-35 20h-64l8-6z" class="st1"/>
          <path id="path583" d="M508 287 322 473a70 70 0 0 1-50 20H57c-13 0-19-15-10-24l119-182z" class="st1"/>
          <path id="path585" d="M47 81c-9-9-3-24 10-24h215c19 0 36 7 50 20l186 186H166Z" class="st1"/>
        </g>
      </g>
    </g>
  </g>
</svg>
